# xmcd
#
# Track frame offsets: 
#        150
#        14795
#        30669
#        40019
#        54787
#        74664
#        91085
#        105386
#        118599
#        135528
#
# Disc length: 2021 seconds
#
# Revision: 0
# Processed by: cddbd v1.5.1PL0 Copyright (c) Steve Scherf et al.
# Submitted via: ExactAudioCopy v0.95b2
#
DISCID=7c07e30a
DTITLE=Deltaboo - Bootis Connection
DYEAR=2005
DGENRE=Blues
TTITLE0=Farmer Song
TTITLE1=Stay Where You Were
TTITLE2=Walk Right
TTITLE3=You Can Forget
TTITLE4=Piyoo
TTITLE5=That's All Right
TTITLE6=No Shadows
TTITLE7=Old Story
TTITLE8=Maciek
TTITLE9=Maciek (Dla Ciebie)
EXTD=
EXTT0=
EXTT1=
EXTT2=
EXTT3=
EXTT4=
EXTT5=
EXTT6=
EXTT7=
EXTT8=
EXTT9=
PLAYORDER=
